<svg data-v-fde0c5aa="" xmlns="http://www.w3.org/2000/svg" viewBox="0 0 300 300" class="iconLeft"><!----><defs data-v-fde0c5aa=""><!----></defs><rect data-v-fde0c5aa="" fill="transparent" x="0" y="0" width="300px" height="300px" class="logo-background-square"></rect><defs data-v-fde0c5aa=""><!----></defs><g data-v-fde0c5aa="" id="851fe31c-4ed4-4f77-997d-bfdc386bfd5e" fill="#000000" transform="matrix(3.121798259409413,0,0,3.121798259409413,128.66594720245644,128.39715651902583)"><path d="M2.49 10.50L5.15 10.50L6.37 5.00C6.57 4.07 6.76 3.00 6.78 2.93C6.79 3.07 6.96 4.06 7.17 5.00L8.39 10.50L11.06 10.50L13.48 0.71L11.21 0.71L10.18 5.95L9.72 8.36C9.70 8.30 9.52 7.20 9.20 5.68L8.09 0.71L5.52 0.71L4.44 5.68C4.10 7.22 3.91 8.36 3.91 8.36C3.91 8.36 3.65 7.22 3.40 5.95L2.34 0.71L0.07 0.71ZM14.53 10.50L16.70 10.50L16.70 3.00L14.53 3.00ZM14.53 2.06L16.70 2.06L16.70 0.01L14.53 0.01ZM23.28 10.50L25.51 10.50L25.51 5.53C25.51 4.13 24.98 2.86 23.09 2.86C21.91 2.86 21.07 3.43 20.69 4.54C20.66 3.95 20.59 3.21 20.58 3.00L18.48 3.00C18.49 3.42 18.52 3.96 18.52 4.73L18.52 10.50L20.72 10.50L20.72 6.52C20.72 5.29 21.22 4.52 22.12 4.52C22.99 4.52 23.28 5.05 23.28 6.10ZM29.64 10.49C30.91 10.49 31.70 9.97 32.05 9.09C32.03 9.23 32.03 9.41 32.03 9.52L32.03 10.61C32.03 11.98 31.47 12.45 30.58 12.45C29.76 12.45 29.39 12.03 29.27 11.42L27.12 11.63C27.31 12.82 28.21 13.83 30.51 13.83C32.94 13.83 34.23 12.77 34.23 10.56L34.23 4.77C34.23 4.21 34.26 3.23 34.29 3.00L32.20 3.00C32.17 3.23 32.12 3.81 32.09 4.27C31.75 3.35 30.86 2.86 29.78 2.86C27.83 2.86 26.85 4.24 26.85 6.65C26.85 9.03 27.72 10.49 29.64 10.49ZM32.05 6.62C32.05 8.41 31.29 8.92 30.55 8.92C29.58 8.92 29.13 8.16 29.13 6.65C29.13 5.01 29.68 4.40 30.56 4.40C31.32 4.40 32.05 4.93 32.05 6.62ZM42.07 8.19C42.07 6.68 40.95 6.19 39.41 5.84C37.94 5.50 37.77 5.26 37.77 4.83C37.77 4.49 38.04 4.21 38.71 4.21C39.34 4.21 39.82 4.52 39.84 5.11L41.87 4.97C41.71 3.75 40.57 2.86 38.78 2.86C36.82 2.86 35.78 3.77 35.78 5.11C35.78 6.34 36.40 7.08 38.29 7.52C39.51 7.80 39.87 7.99 39.87 8.50C39.87 8.96 39.54 9.24 38.79 9.24C37.93 9.24 37.60 8.72 37.55 8.22L35.56 8.44C35.73 9.59 36.57 10.64 38.82 10.64C40.98 10.64 42.07 9.73 42.07 8.19Z"></path></g><defs data-v-fde0c5aa=""><linearGradient data-v-fde0c5aa="" gradientTransform="rotate(25)" id="a66c61e3-9257-4d18-a179-5ee92e246556" x1="0%" y1="0%" x2="100%" y2="0%"><stop data-v-fde0c5aa="" offset="0%" stop-color="#0A3732" stop-opacity="1"></stop><stop data-v-fde0c5aa="" offset="100%" stop-color="#55C388" stop-opacity="1"></stop></linearGradient></defs><g data-v-fde0c5aa="" id="d0e4d4f1-1991-487e-9ae6-622b9ead3835" stroke="none" fill="url(#a66c61e3-9257-4d18-a179-5ee92e246556)" transform="matrix(0.8567395378301758,0,0,0.8567395378301758,35.10562243131246,107.16292424538156)"><path d="M94.275 36.298c-.224-3.69-1.339-4.49-5.444-7.265a6.82 6.82 0 0 0 .716-3.034c0-4.037-3.551-7.308-7.928-7.308-2.948 0-5.518 1.483-6.885 3.685-.838-.54-1.416-1.072-1.598-1.595-.688-2.338-3.059-3.832-5.645-3.818-1.025-2.758-3.757-4.731-6.969-4.731-2.634 0-4.945 1.33-6.257 3.329-.8.189-1.639.429-2.432.732-3.52-.551-5.703-.507-7.032-.571-2.699 1.912-11.019 9.782-11.019 9.782s-3.486 4.272-3.261 5.397c-2.022.9-20.574 14.393-22.375 16.641 0 0-6.409 4.609 1.576 12.82 7.982 8.207 15.628 9.33 18.552 5.846 2.923-3.486 14.616-20.464 14.729-22.939 1.8-1.686 2.924-3.261 2.924-3.261l6.634.675 2.023-1.911s1.575 2.024 4.386 1.35a474.859 474.859 0 0 1 5.284 4.835l6.747 3.599S54.359 66.433 52.786 70.143c-1.574 3.71 1.011 11.02 10.681 15.291 9.67 4.272 14.28 2.362 16.51-3.146 0 0 6.315-16.417 7.665-24.626 3.71-8.658 6.858-17.654 6.633-21.364zM26.643 61.233c-6.767 0-12.426-5.064-13.865-11.846 2.373.471 5.215 1.831 7.9 3.941 3.169 2.489 5.379 5.437 6.156 7.9-.063.001-.126.005-.191.005zM72.37 79.922c-6.46 0-11.91-4.614-13.645-10.933 2.828-.326 6.549.532 10.138 2.564 3.754 2.126 6.48 5.037 7.565 7.733a13.273 13.273 0 0 1-4.058.636z"></path></g><!----></svg>